<svg width="451" height="500" viewBox="0 0 451 500" fill="none" xmlns="http://www.w3.org/2000/svg">
<path d="M225.098 500C100.991 500 0 399.009 0 274.885V0H450.212V274.885C450.212 399.009 349.238 500 225.098 500Z" fill="#011F5B"/>
<path d="M225.098 479.866C170.753 479.803 118.651 458.187 80.2235 419.759C41.7958 381.332 20.1796 329.23 20.1172 274.885V20.1172H430.095V274.885C430.032 329.233 408.414 381.337 369.983 419.765C331.551 458.194 279.446 479.808 225.098 479.866Z" fill="white"/>
<path d="M40.2345 40.2515H409.961V274.886C409.961 323.914 390.484 370.935 355.816 405.604C321.147 440.272 274.126 459.749 225.098 459.749C176.069 459.749 129.048 440.272 94.3797 405.604C59.7111 370.935 40.2345 323.914 40.2345 274.886V40.2515Z" fill="#990000"/>
<path d="M301.961 101.125H104.276V123.13H301.961V101.125Z" fill="white"/>
<path d="M280.041 145.134V211.113H302.028V145.134H280.041Z" fill="white"/>
<path d="M104.209 101.193V167.138H126.196V101.193H104.209Z" fill="white"/>
<path d="M301.961 145.134H104.276V167.138H301.961V145.134Z" fill="white"/>
<path d="M345.97 101.125H324.016V123.13H345.97V101.125Z" fill="white"/>
<path d="M345.97 145.134H324.016V211.13H345.97V145.134Z" fill="white"/>
<path d="M301.961 189.143H104.276V211.147H301.961V189.143Z" fill="white"/>
<path d="M346.003 343.038V233.101H324.016V343.038H346.003Z" fill="white"/>
<path d="M302.029 343.055V233.118H280.041V343.055H302.029Z" fill="white"/>
<path d="M258.054 343.055V233.118H236.066V343.055H258.054Z" fill="white"/>
<path d="M214.096 266.006C214.112 270.343 213.266 274.64 211.605 278.646C209.945 282.652 207.504 286.288 204.424 289.342C201.405 292.429 197.795 294.877 193.809 296.539C189.822 298.2 185.542 299.042 181.224 299.013H104.209V277.109H181.089C184.007 277.109 186.805 275.95 188.869 273.887C190.932 271.824 192.091 269.025 192.091 266.107C192.091 263.189 190.932 260.391 188.869 258.328C186.805 256.264 184.007 255.105 181.089 255.105H104.209V233.135H181.224C189.938 233.148 198.291 236.615 204.453 242.777C210.615 248.939 214.082 257.292 214.096 266.006Z" fill="white"/>
<path d="M214.096 310.015C214.06 318.72 210.585 327.059 204.427 333.213C198.27 339.368 189.929 342.839 181.224 342.87H104.209V320.966H181.089C184.007 320.966 186.805 319.807 188.869 317.744C190.932 315.681 192.091 312.882 192.091 309.964C192.091 307.046 190.932 304.248 188.869 302.185C186.805 300.121 184.007 298.962 181.089 298.962H104.209V277.059H181.224C185.549 277.054 189.832 277.904 193.828 279.56C197.824 281.216 201.453 283.644 204.507 286.707C207.562 289.769 209.981 293.404 211.627 297.404C213.272 301.404 214.111 305.69 214.096 310.015Z" fill="white"/>
</svg>
