<svg width="451" height="500" viewBox="0 0 451 500" fill="none" xmlns="http://www.w3.org/2000/svg">
<g clip-path="url(#clip0_3_306)">
<path d="M0 0V274.89C0 399 101 500 225.1 500C349.2 500 450.21 399 450.21 274.89V0H0ZM430.1 274.89C430.1 387.89 338.1 479.89 225.1 479.89C112.1 479.89 20.1 387.94 20.1 274.89V20.13H430.1V274.89ZM225.1 459.75C249.38 459.757 273.423 454.98 295.857 445.693C318.29 436.405 338.674 422.789 355.845 405.623C373.015 388.456 386.635 368.075 395.927 345.644C405.219 323.212 410.001 299.17 410 274.89V40.25H40.25V274.89C40.25 377 123 459.75 225.1 459.75ZM258.1 343.04H236.1V233.12H258.1V343.04ZM302.1 343.04H280V233.12H302L302.1 343.04ZM324.1 101.13H346.1V123.13H324L324.1 101.13ZM324.1 145.13H346.1V211.13H324L324.1 145.13ZM324.1 233.13H346.1V343H324L324.1 233.13ZM104.23 101.19V101.13H302V123.13H126.21V145.13H302V211.13H104.28V189.13H280V167.13H104.23V101.19ZM104.23 321.02H181.09C184.007 321.02 186.805 319.861 188.868 317.798C190.931 315.735 192.09 312.937 192.09 310.02C192.09 307.103 190.931 304.305 188.868 302.242C186.805 300.179 184.007 299.02 181.09 299.02H104.23V277.14H181.09C184.007 277.14 186.805 275.981 188.868 273.918C190.931 271.855 192.09 269.057 192.09 266.14C192.09 263.223 190.931 260.425 188.868 258.362C186.805 256.299 184.007 255.14 181.09 255.14H104.23V233.14H181.23C187.58 233.148 193.792 234.996 199.116 238.458C204.439 241.921 208.645 246.851 211.227 252.653C213.809 258.455 214.655 264.881 213.663 271.153C212.672 277.426 209.885 283.277 205.64 288C211.098 294.026 214.115 301.87 214.1 310C214.068 318.711 210.594 327.055 204.435 333.215C198.275 339.374 189.931 342.848 181.22 342.88H104.22L104.23 321.02Z" fill="white"/>
<path d="M40.25 40.25V274.89C40.25 377 123 459.75 225.1 459.75C249.38 459.757 273.423 454.98 295.857 445.693C318.29 436.405 338.674 422.789 355.845 405.623C373.015 388.456 386.635 368.075 395.927 345.644C405.219 323.212 410.001 299.17 410 274.89V40.25H40.25ZM214.1 310C214.068 318.711 210.594 327.055 204.435 333.215C198.275 339.374 189.931 342.848 181.22 342.88H104.22V321H181.08C183.997 321 186.795 319.841 188.858 317.778C190.921 315.715 192.08 312.917 192.08 310C192.08 307.083 190.921 304.285 188.858 302.222C186.795 300.159 183.997 299 181.08 299H104.23V277.14H181.09C184.007 277.14 186.805 275.981 188.868 273.918C190.931 271.855 192.09 269.057 192.09 266.14C192.09 263.223 190.931 260.425 188.868 258.362C186.805 256.299 184.007 255.14 181.09 255.14H104.23V233.14H181.23C187.58 233.148 193.792 234.996 199.116 238.458C204.439 241.921 208.645 246.851 211.227 252.653C213.809 258.455 214.655 264.881 213.663 271.153C212.672 277.426 209.885 283.277 205.64 288C211.098 294.026 214.115 301.87 214.1 310ZM258.1 343H236.1V233.12H258.1V343ZM302.1 343H280V233.12H302L302.1 343ZM302.1 211.09H104.28V189.09H280V167.09H104.23V101.19V101.13H302V123.13H126.21V145.13H302L302.1 211.09ZM346 343H324V233.12H346V343ZM346 211.11H324V145.11H346V211.11ZM346 123.11H324V101.11H346V123.11Z" fill="white"/>
<path d="M40.25 40.25V274.89C40.25 377 123 459.75 225.1 459.75C249.38 459.757 273.423 454.98 295.857 445.693C318.29 436.405 338.674 422.789 355.845 405.623C373.015 388.456 386.635 368.075 395.927 345.644C405.219 323.212 410.001 299.17 410 274.89V40.25H40.25ZM214.1 310C214.068 318.711 210.594 327.055 204.435 333.215C198.275 339.374 189.931 342.848 181.22 342.88H104.22V321H181.08C183.997 321 186.795 319.841 188.858 317.778C190.921 315.715 192.08 312.917 192.08 310C192.08 307.083 190.921 304.285 188.858 302.222C186.795 300.159 183.997 299 181.08 299H104.23V277.14H181.09C184.007 277.14 186.805 275.981 188.868 273.918C190.931 271.855 192.09 269.057 192.09 266.14C192.09 263.223 190.931 260.425 188.868 258.362C186.805 256.299 184.007 255.14 181.09 255.14H104.23V233.14H181.23C187.58 233.148 193.792 234.996 199.116 238.458C204.439 241.921 208.645 246.851 211.227 252.653C213.809 258.455 214.655 264.881 213.663 271.153C212.672 277.426 209.885 283.277 205.64 288C211.098 294.026 214.115 301.87 214.1 310ZM258.1 343H236.1V233.12H258.1V343ZM302.1 343H280V233.12H302L302.1 343ZM302.1 211.09H104.28V189.09H280V167.09H104.23V101.19V101.13H302V123.13H126.21V145.13H302L302.1 211.09ZM346 343H324V233.12H346V343ZM346 211.11H324V145.11H346V211.11ZM346 123.11H324V101.11H346V123.11Z" fill="white"/>
</g>
<defs>
<clipPath id="clip0_3_306">
<rect width="450.21" height="500" fill="white"/>
</clipPath>
</defs>
</svg>
